# xmcd CD database file
#
# Track frame offsets:
#	150
#	39167
#	87982
#	107490
#	152312
#	219064
#	242432
#
# Disc length: 3838 seconds
#
# Revision: 0
# Processed by: cddbd v1.5.1PL0 Copyright (c) Steve Scherf et al.
# Submitted via: CDex 1.50
#
DISCID=3e0efc07
DTITLE=Cecil Taylor - Port of call
DYEAR=1960
DGENRE=Jazz
TTITLE0=Air
TTITLE1=This nearly was mine
TTITLE2=Port of call
TTITLE3=E.B.
TTITLE4=Lazy Afternoon
TTITLE5=Cindy's main mood
TTITLE6=Things ain't what they used to be
EXTD=YEAR: 1960
EXTT0=
EXTT1=
EXTT2=
EXTT3=
EXTT4=
EXTT5=
EXTT6=
PLAYORDER=
